# xmcd
#
# Track frame offsets:
# 150
# 13015
# 24520
# 36357
# 47045
# 56520
# 66605
# 81232
# 93900
# 108047
# 118570
# 129892
# 138935
# 151080
# 165180
# 175840
# 184687
# 192570
# 206170
# 218960
#
# Disc length: 3107 seconds
#
#
# Revision: 0
# Processed by: cddbd v1.5.1PL0 Copyright (c) Steve Scherf et al.
# Submitted via: FreeRIP 2.942 
#
DISCID=0e0c2114
DTITLE=Johnny Horton - America Remembers Johnny Horton
DYEAR=1992
DGENRE=Country
TTITLE0=North To Alaska
TTITLE1=Battle Of New Orleans
TTITLE2=When It's Springtime In Alaska (It's Forty Below)
TTITLE3=Johnny Reb
TTITLE4=I'm Coming Home
TTITLE5=Honky Tonk Man
TTITLE6=Sink The Bismark
TTITLE7=All For The Love Of A Girl
TTITLE8=The Mansion You Stole
TTITLE9=I'm Ready If You're Willing
TTITLE10=The Jim Bridger Story
TTITLE11=I'm A One-Woman Man
TTITLE12=Sleepy-Eyed John
TTITLE13=They'll Never Take Her Love From Me
TTITLE14=Old Slewfoot
TTITLE15=All Grown Up
TTITLE16=Sal's Got a Sugar Lip
TTITLE17=Whispering Pines
TTITLE18=Johnny Freedom (Freedom Land)
TTITLE19=Comanche
EXTD=TeeVee Records
EXTT0=
EXTT1=1959
EXTT2=1959
EXTT3=
EXTT4=
EXTT5=1956
EXTT6=
EXTT7=
EXTT8=
EXTT9=
EXTT10=
EXTT11=1956
EXTT12=
EXTT13=
EXTT14=
EXTT15=
EXTT16=
EXTT17=
EXTT18=
EXTT19=
PLAYORDER=
